<?xml version="1.0" encoding="utf-8" standalone="no"?>
<!DOCTYPE svg PUBLIC "-//W3C//DTD SVG 1.1//EN"
  "http://www.w3.org/Graphics/SVG/1.1/DTD/svg11.dtd">
<!-- Created with matplotlib (https://matplotlib.org/) -->
<svg height="288pt" version="1.1" viewBox="0 0 720 288" width="720pt" xmlns="http://www.w3.org/2000/svg" xmlns:xlink="http://www.w3.org/1999/xlink">
 <defs>
  <style type="text/css">
*{stroke-linecap:butt;stroke-linejoin:round;}
  </style>
 </defs>
 <g id="figure_1">
  <g id="patch_1">
   <path d="M 0 288 
L 720 288 
L 720 0 
L 0 0 
z
" style="fill:#ffffff;"/>
  </g>
  <g id="axes_1">
   <g id="patch_2">
    <path d="M 48.53 245.32 
L 709.2 245.32 
L 709.2 26.16 
L 48.53 26.16 
z
" style="fill:#eaeaf2;"/>
   </g>
   <g id="matplotlib.axis_1">
    <g id="xtick_1">
     <g id="line2d_1">
      <path clip-path="url(#pa2a54184b4)" d="M 78.560455 245.32 
L 78.560455 26.16 
" style="fill:none;stroke:#ffffff;stroke-linecap:round;"/>
     </g>
     <g id="line2d_2"/>
     <g id="text_1">
      <!-- 2003 -->
      <defs>
       <path d="M 19.1875 8.296875 
L 53.609375 8.296875 
L 53.609375 0 
L 7.328125 0 
L 7.328125 8.296875 
Q 12.9375 14.109375 22.625 23.890625 
Q 32.328125 33.6875 34.8125 36.53125 
Q 39.546875 41.84375 41.421875 45.53125 
Q 43.3125 49.21875 43.3125 52.78125 
Q 43.3125 58.59375 39.234375 62.25 
Q 35.15625 65.921875 28.609375 65.921875 
Q 23.96875 65.921875 18.8125 64.3125 
Q 13.671875 62.703125 7.8125 59.421875 
L 7.8125 69.390625 
Q 13.765625 71.78125 18.9375 73 
Q 24.125 74.21875 28.421875 74.21875 
Q 39.75 74.21875 46.484375 68.546875 
Q 53.21875 62.890625 53.21875 53.421875 
Q 53.21875 48.921875 51.53125 44.890625 
Q 49.859375 40.875 45.40625 35.40625 
Q 44.1875 33.984375 37.640625 27.21875 
Q 31.109375 20.453125 19.1875 8.296875 
z
" id="DejaVuSans-50"/>
       <path d="M 31.78125 66.40625 
Q 24.171875 66.40625 20.328125 58.90625 
Q 16.5 51.421875 16.5 36.375 
Q 16.5 21.390625 20.328125 13.890625 
Q 24.171875 6.390625 31.78125 6.390625 
Q 39.453125 6.390625 43.28125 13.890625 
Q 47.125 21.390625 47.125 36.375 
Q 47.125 51.421875 43.28125 58.90625 
Q 39.453125 66.40625 31.78125 66.40625 
z
M 31.78125 74.21875 
Q 44.046875 74.21875 50.515625 64.515625 
Q 56.984375 54.828125 56.984375 36.375 
Q 56.984375 17.96875 50.515625 8.265625 
Q 44.046875 -1.421875 31.78125 -1.421875 
Q 19.53125 -1.421875 13.0625 8.265625 
Q 6.59375 17.96875 6.59375 36.375 
Q 6.59375 54.828125 13.0625 64.515625 
Q 19.53125 74.21875 31.78125 74.21875 
z
" id="DejaVuSans-48"/>
       <path d="M 40.578125 39.3125 
Q 47.65625 37.796875 51.625 33 
Q 55.609375 28.21875 55.609375 21.1875 
Q 55.609375 10.40625 48.1875 4.484375 
Q 40.765625 -1.421875 27.09375 -1.421875 
Q 22.515625 -1.421875 17.65625 -0.515625 
Q 12.796875 0.390625 7.625 2.203125 
L 7.625 11.71875 
Q 11.71875 9.328125 16.59375 8.109375 
Q 21.484375 6.890625 26.8125 6.890625 
Q 36.078125 6.890625 40.9375 10.546875 
Q 45.796875 14.203125 45.796875 21.1875 
Q 45.796875 27.640625 41.28125 31.265625 
Q 36.765625 34.90625 28.71875 34.90625 
L 20.21875 34.90625 
L 20.21875 43.015625 
L 29.109375 43.015625 
Q 36.375 43.015625 40.234375 45.921875 
Q 44.09375 48.828125 44.09375 54.296875 
Q 44.09375 59.90625 40.109375 62.90625 
Q 36.140625 65.921875 28.71875 65.921875 
Q 24.65625 65.921875 20.015625 65.03125 
Q 15.375 64.15625 9.8125 62.3125 
L 9.8125 71.09375 
Q 15.4375 72.65625 20.34375 73.4375 
Q 25.25 74.21875 29.59375 74.21875 
Q 40.828125 74.21875 47.359375 69.109375 
Q 53.90625 64.015625 53.90625 55.328125 
Q 53.90625 49.265625 50.4375 45.09375 
Q 46.96875 40.921875 40.578125 39.3125 
z
" id="DejaVuSans-51"/>
      </defs>
      <g style="fill:#262626;" transform="translate(65.835455 259.918437)scale(0.1 -0.1)">
       <use xlink:href="#DejaVuSans-50"/>
       <use x="63.623047" xlink:href="#DejaVuSans-48"/>
       <use x="127.246094" xlink:href="#DejaVuSans-48"/>
       <use x="190.869141" xlink:href="#DejaVuSans-51"/>
      </g>
     </g>
    </g>
    <g id="xtick_2">
     <g id="line2d_3">
      <path clip-path="url(#pa2a54184b4)" d="M 113.890401 245.32 
L 113.890401 26.16 
" style="fill:none;stroke:#ffffff;stroke-linecap:round;"/>
     </g>
     <g id="line2d_4"/>
     <g id="text_2">
      <!-- 2004 -->
      <defs>
       <path d="M 37.796875 64.3125 
L 12.890625 25.390625 
L 37.796875 25.390625 
z
M 35.203125 72.90625 
L 47.609375 72.90625 
L 47.609375 25.390625 
L 58.015625 25.390625 
L 58.015625 17.1875 
L 47.609375 17.1875 
L 47.609375 0 
L 37.796875 0 
L 37.796875 17.1875 
L 4.890625 17.1875 
L 4.890625 26.703125 
z
" id="DejaVuSans-52"/>
      </defs>
      <g style="fill:#262626;" transform="translate(101.165401 259.918437)scale(0.1 -0.1)">
       <use xlink:href="#DejaVuSans-50"/>
       <use x="63.623047" xlink:href="#DejaVuSans-48"/>
       <use x="127.246094" xlink:href="#DejaVuSans-48"/>
       <use x="190.869141" xlink:href="#DejaVuSans-52"/>
      </g>
     </g>
    </g>
    <g id="xtick_3">
     <g id="line2d_5">
      <path clip-path="url(#pa2a54184b4)" d="M 149.220348 245.32 
L 149.220348 26.16 
" style="fill:none;stroke:#ffffff;stroke-linecap:round;"/>
     </g>
     <g id="line2d_6"/>
     <g id="text_3">
      <!-- 2005 -->
      <defs>
       <path d="M 10.796875 72.90625 
L 49.515625 72.90625 
L 49.515625 64.59375 
L 19.828125 64.59375 
L 19.828125 46.734375 
Q 21.96875 47.46875 24.109375 47.828125 
Q 26.265625 48.1875 28.421875 48.1875 
Q 40.625 48.1875 47.75 41.5 
Q 54.890625 34.8125 54.890625 23.390625 
Q 54.890625 11.625 47.5625 5.09375 
Q 40.234375 -1.421875 26.90625 -1.421875 
Q 22.3125 -1.421875 17.546875 -0.640625 
Q 12.796875 0.140625 7.71875 1.703125 
L 7.71875 11.625 
Q 12.109375 9.234375 16.796875 8.0625 
Q 21.484375 6.890625 26.703125 6.890625 
Q 35.15625 6.890625 40.078125 11.328125 
Q 45.015625 15.765625 45.015625 23.390625 
Q 45.015625 31 40.078125 35.4375 
Q 35.15625 39.890625 26.703125 39.890625 
Q 22.75 39.890625 18.8125 39.015625 
Q 14.890625 38.140625 10.796875 36.28125 
z
" id="DejaVuSans-53"/>
      </defs>
      <g style="fill:#262626;" transform="translate(136.495348 259.918437)scale(0.1 -0.1)">
       <use xlink:href="#DejaVuSans-50"/>
       <use x="63.623047" xlink:href="#DejaVuSans-48"/>
       <use x="127.246094" xlink:href="#DejaVuSans-48"/>
       <use x="190.869141" xlink:href="#DejaVuSans-53"/>
      </g>
     </g>
    </g>
    <g id="xtick_4">
     <g id="line2d_7">
      <path clip-path="url(#pa2a54184b4)" d="M 184.550294 245.32 
L 184.550294 26.16 
" style="fill:none;stroke:#ffffff;stroke-linecap:round;"/>
     </g>
     <g id="line2d_8"/>
     <g id="text_4">
      <!-- 2006 -->
      <defs>
       <path d="M 33.015625 40.375 
Q 26.375 40.375 22.484375 35.828125 
Q 18.609375 31.296875 18.609375 23.390625 
Q 18.609375 15.53125 22.484375 10.953125 
Q 26.375 6.390625 33.015625 6.390625 
Q 39.65625 6.390625 43.53125 10.953125 
Q 47.40625 15.53125 47.40625 23.390625 
Q 47.40625 31.296875 43.53125 35.828125 
Q 39.65625 40.375 33.015625 40.375 
z
M 52.59375 71.296875 
L 52.59375 62.3125 
Q 48.875 64.0625 45.09375 64.984375 
Q 41.3125 65.921875 37.59375 65.921875 
Q 27.828125 65.921875 22.671875 59.328125 
Q 17.53125 52.734375 16.796875 39.40625 
Q 19.671875 43.65625 24.015625 45.921875 
Q 28.375 48.1875 33.59375 48.1875 
Q 44.578125 48.1875 50.953125 41.515625 
Q 57.328125 34.859375 57.328125 23.390625 
Q 57.328125 12.15625 50.6875 5.359375 
Q 44.046875 -1.421875 33.015625 -1.421875 
Q 20.359375 -1.421875 13.671875 8.265625 
Q 6.984375 17.96875 6.984375 36.375 
Q 6.984375 53.65625 15.1875 63.9375 
Q 23.390625 74.21875 37.203125 74.21875 
Q 40.921875 74.21875 44.703125 73.484375 
Q 48.484375 72.75 52.59375 71.296875 
z
" id="DejaVuSans-54"/>
      </defs>
      <g style="fill:#262626;" transform="translate(171.825294 259.918437)scale(0.1 -0.1)">
       <use xlink:href="#DejaVuSans-50"/>
       <use x="63.623047" xlink:href="#DejaVuSans-48"/>
       <use x="127.246094" xlink:href="#DejaVuSans-48"/>
       <use x="190.869141" xlink:href="#DejaVuSans-54"/>
      </g>
     </g>
    </g>
    <g id="xtick_5">
     <g id="line2d_9">
      <path clip-path="url(#pa2a54184b4)" d="M 219.880241 245.32 
L 219.880241 26.16 
" style="fill:none;stroke:#ffffff;stroke-linecap:round;"/>
     </g>
     <g id="line2d_10"/>
     <g id="text_5">
      <!-- 2007 -->
      <defs>
       <path d="M 8.203125 72.90625 
L 55.078125 72.90625 
L 55.078125 68.703125 
L 28.609375 0 
L 18.3125 0 
L 43.21875 64.59375 
L 8.203125 64.59375 
z
" id="DejaVuSans-55"/>
      </defs>
      <g style="fill:#262626;" transform="translate(207.155241 259.918437)scale(0.1 -0.1)">
       <use xlink:href="#DejaVuSans-50"/>
       <use x="63.623047" xlink:href="#DejaVuSans-48"/>
       <use x="127.246094" xlink:href="#DejaVuSans-48"/>
       <use x="190.869141" xlink:href="#DejaVuSans-55"/>
      </g>
     </g>
    </g>
    <g id="xtick_6">
     <g id="line2d_11">
      <path clip-path="url(#pa2a54184b4)" d="M 255.210187 245.32 
L 255.210187 26.16 
" style="fill:none;stroke:#ffffff;stroke-linecap:round;"/>
     </g>
     <g id="line2d_12"/>
     <g id="text_6">
      <!-- 2008 -->
      <defs>
       <path d="M 31.78125 34.625 
Q 24.75 34.625 20.71875 30.859375 
Q 16.703125 27.09375 16.703125 20.515625 
Q 16.703125 13.921875 20.71875 10.15625 
Q 24.75 6.390625 31.78125 6.390625 
Q 38.8125 6.390625 42.859375 10.171875 
Q 46.921875 13.96875 46.921875 20.515625 
Q 46.921875 27.09375 42.890625 30.859375 
Q 38.875 34.625 31.78125 34.625 
z
M 21.921875 38.8125 
Q 15.578125 40.375 12.03125 44.71875 
Q 8.5 49.078125 8.5 55.328125 
Q 8.5 64.0625 14.71875 69.140625 
Q 20.953125 74.21875 31.78125 74.21875 
Q 42.671875 74.21875 48.875 69.140625 
Q 55.078125 64.0625 55.078125 55.328125 
Q 55.078125 49.078125 51.53125 44.71875 
Q 48 40.375 41.703125 38.8125 
Q 48.828125 37.15625 52.796875 32.3125 
Q 56.78125 27.484375 56.78125 20.515625 
Q 56.78125 9.90625 50.3125 4.234375 
Q 43.84375 -1.421875 31.78125 -1.421875 
Q 19.734375 -1.421875 13.25 4.234375 
Q 6.78125 9.90625 6.78125 20.515625 
Q 6.78125 27.484375 10.78125 32.3125 
Q 14.796875 37.15625 21.921875 38.8125 
z
M 18.3125 54.390625 
Q 18.3125 48.734375 21.84375 45.5625 
Q 25.390625 42.390625 31.78125 42.390625 
Q 38.140625 42.390625 41.71875 45.5625 
Q 45.3125 48.734375 45.3125 54.390625 
Q 45.3125 60.0625 41.71875 63.234375 
Q 38.140625 66.40625 31.78125 66.40625 
Q 25.390625 66.40625 21.84375 63.234375 
Q 18.3125 60.0625 18.3125 54.390625 
z
" id="DejaVuSans-56"/>
      </defs>
      <g style="fill:#262626;" transform="translate(242.485187 259.918437)scale(0.1 -0.1)">
       <use xlink:href="#DejaVuSans-50"/>
       <use x="63.623047" xlink:href="#DejaVuSans-48"/>
       <use x="127.246094" xlink:href="#DejaVuSans-48"/>
       <use x="190.869141" xlink:href="#DejaVuSans-56"/>
      </g>
     </g>
    </g>
    <g id="xtick_7">
     <g id="line2d_13">
      <path clip-path="url(#pa2a54184b4)" d="M 290.540134 245.32 
L 290.540134 26.16 
" style="fill:none;stroke:#ffffff;stroke-linecap:round;"/>
     </g>
     <g id="line2d_14"/>
     <g id="text_7">
      <!-- 2009 -->
      <defs>
       <path d="M 10.984375 1.515625 
L 10.984375 10.5 
Q 14.703125 8.734375 18.5 7.8125 
Q 22.3125 6.890625 25.984375 6.890625 
Q 35.75 6.890625 40.890625 13.453125 
Q 46.046875 20.015625 46.78125 33.40625 
Q 43.953125 29.203125 39.59375 26.953125 
Q 35.25 24.703125 29.984375 24.703125 
Q 19.046875 24.703125 12.671875 31.3125 
Q 6.296875 37.9375 6.296875 49.421875 
Q 6.296875 60.640625 12.9375 67.421875 
Q 19.578125 74.21875 30.609375 74.21875 
Q 43.265625 74.21875 49.921875 64.515625 
Q 56.59375 54.828125 56.59375 36.375 
Q 56.59375 19.140625 48.40625 8.859375 
Q 40.234375 -1.421875 26.421875 -1.421875 
Q 22.703125 -1.421875 18.890625 -0.6875 
Q 15.09375 0.046875 10.984375 1.515625 
z
M 30.609375 32.421875 
Q 37.25 32.421875 41.125 36.953125 
Q 45.015625 41.5 45.015625 49.421875 
Q 45.015625 57.28125 41.125 61.84375 
Q 37.25 66.40625 30.609375 66.40625 
Q 23.96875 66.40625 20.09375 61.84375 
Q 16.21875 57.28125 16.21875 49.421875 
Q 16.21875 41.5 20.09375 36.953125 
Q 23.96875 32.421875 30.609375 32.421875 
z
" id="DejaVuSans-57"/>
      </defs>
      <g style="fill:#262626;" transform="translate(277.815134 259.918437)scale(0.1 -0.1)">
       <use xlink:href="#DejaVuSans-50"/>
       <use x="63.623047" xlink:href="#DejaVuSans-48"/>
       <use x="127.246094" xlink:href="#DejaVuSans-48"/>
       <use x="190.869141" xlink:href="#DejaVuSans-57"/>
      </g>
     </g>
    </g>
    <g id="xtick_8">
     <g id="line2d_15">
      <path clip-path="url(#pa2a54184b4)" d="M 325.87008 245.32 
L 325.87008 26.16 
" style="fill:none;stroke:#ffffff;stroke-linecap:round;"/>
     </g>
     <g id="line2d_16"/>
     <g id="text_8">
      <!-- 2010 -->
      <defs>
       <path d="M 12.40625 8.296875 
L 28.515625 8.296875 
L 28.515625 63.921875 
L 10.984375 60.40625 
L 10.984375 69.390625 
L 28.421875 72.90625 
L 38.28125 72.90625 
L 38.28125 8.296875 
L 54.390625 8.296875 
L 54.390625 0 
L 12.40625 0 
z
" id="DejaVuSans-49"/>
      </defs>
      <g style="fill:#262626;" transform="translate(313.14508 259.918437)scale(0.1 -0.1)">
       <use xlink:href="#DejaVuSans-50"/>
       <use x="63.623047" xlink:href="#DejaVuSans-48"/>
       <use x="127.246094" xlink:href="#DejaVuSans-49"/>
       <use x="190.869141" xlink:href="#DejaVuSans-48"/>
      </g>
     </g>
    </g>
    <g id="xtick_9">
     <g id="line2d_17">
      <path clip-path="url(#pa2a54184b4)" d="M 361.200027 245.32 
L 361.200027 26.16 
" style="fill:none;stroke:#ffffff;stroke-linecap:round;"/>
     </g>
     <g id="line2d_18"/>
     <g id="text_9">
      <!-- 2011 -->
      <g style="fill:#262626;" transform="translate(348.475027 259.918437)scale(0.1 -0.1)">
       <use xlink:href="#DejaVuSans-50"/>
       <use x="63.623047" xlink:href="#DejaVuSans-48"/>
       <use x="127.246094" xlink:href="#DejaVuSans-49"/>
       <use x="190.869141" xlink:href="#DejaVuSans-49"/>
      </g>
     </g>
    </g>
    <g id="xtick_10">
     <g id="line2d_19">
      <path clip-path="url(#pa2a54184b4)" d="M 396.529973 245.32 
L 396.529973 26.16 
" style="fill:none;stroke:#ffffff;stroke-linecap:round;"/>
     </g>
     <g id="line2d_20"/>
     <g id="text_10">
      <!-- 2012 -->
      <g style="fill:#262626;" transform="translate(383.804973 259.918437)scale(0.1 -0.1)">
       <use xlink:href="#DejaVuSans-50"/>
       <use x="63.623047" xlink:href="#DejaVuSans-48"/>
       <use x="127.246094" xlink:href="#DejaVuSans-49"/>
       <use x="190.869141" xlink:href="#DejaVuSans-50"/>
      </g>
     </g>
    </g>
    <g id="xtick_11">
     <g id="line2d_21">
      <path clip-path="url(#pa2a54184b4)" d="M 431.85992 245.32 
L 431.85992 26.16 
" style="fill:none;stroke:#ffffff;stroke-linecap:round;"/>
     </g>
     <g id="line2d_22"/>
     <g id="text_11">
      <!-- 2013 -->
      <g style="fill:#262626;" transform="translate(419.13492 259.918437)scale(0.1 -0.1)">
       <use xlink:href="#DejaVuSans-50"/>
       <use x="63.623047" xlink:href="#DejaVuSans-48"/>
       <use x="127.246094" xlink:href="#DejaVuSans-49"/>
       <use x="190.869141" xlink:href="#DejaVuSans-51"/>
      </g>
     </g>
    </g>
    <g id="xtick_12">
     <g id="line2d_23">
      <path clip-path="url(#pa2a54184b4)" d="M 467.189866 245.32 
L 467.189866 26.16 
" style="fill:none;stroke:#ffffff;stroke-linecap:round;"/>
     </g>
     <g id="line2d_24"/>
     <g id="text_12">
      <!-- 2014 -->
      <g style="fill:#262626;" transform="translate(454.464866 259.918437)scale(0.1 -0.1)">
       <use xlink:href="#DejaVuSans-50"/>
       <use x="63.623047" xlink:href="#DejaVuSans-48"/>
       <use x="127.246094" xlink:href="#DejaVuSans-49"/>
       <use x="190.869141" xlink:href="#DejaVuSans-52"/>
      </g>
     </g>
    </g>
    <g id="xtick_13">
     <g id="line2d_25">
      <path clip-path="url(#pa2a54184b4)" d="M 502.519813 245.32 
L 502.519813 26.16 
" style="fill:none;stroke:#ffffff;stroke-linecap:round;"/>
     </g>
     <g id="line2d_26"/>
     <g id="text_13">
      <!-- 2015 -->
      <g style="fill:#262626;" transform="translate(489.794813 259.918437)scale(0.1 -0.1)">
       <use xlink:href="#DejaVuSans-50"/>
       <use x="63.623047" xlink:href="#DejaVuSans-48"/>
       <use x="127.246094" xlink:href="#DejaVuSans-49"/>
       <use x="190.869141" xlink:href="#DejaVuSans-53"/>
      </g>
     </g>
    </g>
    <g id="xtick_14">
     <g id="line2d_27">
      <path clip-path="url(#pa2a54184b4)" d="M 537.849759 245.32 
L 537.849759 26.16 
" style="fill:none;stroke:#ffffff;stroke-linecap:round;"/>
     </g>
     <g id="line2d_28"/>
     <g id="text_14">
      <!-- 2016 -->
      <g style="fill:#262626;" transform="translate(525.124759 259.918437)scale(0.1 -0.1)">
       <use xlink:href="#DejaVuSans-50"/>
       <use x="63.623047" xlink:href="#DejaVuSans-48"/>
       <use x="127.246094" xlink:href="#DejaVuSans-49"/>
       <use x="190.869141" xlink:href="#DejaVuSans-54"/>
      </g>
     </g>
    </g>
    <g id="xtick_15">
     <g id="line2d_29">
      <path clip-path="url(#pa2a54184b4)" d="M 573.179706 245.32 
L 573.179706 26.16 
" style="fill:none;stroke:#ffffff;stroke-linecap:round;"/>
     </g>
     <g id="line2d_30"/>
     <g id="text_15">
      <!-- 2017 -->
      <g style="fill:#262626;" transform="translate(560.454706 259.918437)scale(0.1 -0.1)">
       <use xlink:href="#DejaVuSans-50"/>
       <use x="63.623047" xlink:href="#DejaVuSans-48"/>
       <use x="127.246094" xlink:href="#DejaVuSans-49"/>
       <use x="190.869141" xlink:href="#DejaVuSans-55"/>
      </g>
     </g>
    </g>
    <g id="xtick_16">
     <g id="line2d_31">
      <path clip-path="url(#pa2a54184b4)" d="M 608.509652 245.32 
L 608.509652 26.16 
" style="fill:none;stroke:#ffffff;stroke-linecap:round;"/>
     </g>
     <g id="line2d_32"/>
     <g id="text_16">
      <!-- 2018 -->
      <g style="fill:#262626;" transform="translate(595.784652 259.918437)scale(0.1 -0.1)">
       <use xlink:href="#DejaVuSans-50"/>
       <use x="63.623047" xlink:href="#DejaVuSans-48"/>
       <use x="127.246094" xlink:href="#DejaVuSans-49"/>
       <use x="190.869141" xlink:href="#DejaVuSans-56"/>
      </g>
     </g>
    </g>
    <g id="xtick_17">
     <g id="line2d_33">
      <path clip-path="url(#pa2a54184b4)" d="M 643.839599 245.32 
L 643.839599 26.16 
" style="fill:none;stroke:#ffffff;stroke-linecap:round;"/>
     </g>
     <g id="line2d_34"/>
     <g id="text_17">
      <!-- 2019 -->
      <g style="fill:#262626;" transform="translate(631.114599 259.918437)scale(0.1 -0.1)">
       <use xlink:href="#DejaVuSans-50"/>
       <use x="63.623047" xlink:href="#DejaVuSans-48"/>
       <use x="127.246094" xlink:href="#DejaVuSans-49"/>
       <use x="190.869141" xlink:href="#DejaVuSans-57"/>
      </g>
     </g>
    </g>
    <g id="xtick_18">
     <g id="line2d_35">
      <path clip-path="url(#pa2a54184b4)" d="M 679.169545 245.32 
L 679.169545 26.16 
" style="fill:none;stroke:#ffffff;stroke-linecap:round;"/>
     </g>
     <g id="line2d_36"/>
     <g id="text_18">
      <!-- 2020 -->
      <g style="fill:#262626;" transform="translate(666.444545 259.918437)scale(0.1 -0.1)">
       <use xlink:href="#DejaVuSans-50"/>
       <use x="63.623047" xlink:href="#DejaVuSans-48"/>
       <use x="127.246094" xlink:href="#DejaVuSans-50"/>
       <use x="190.869141" xlink:href="#DejaVuSans-48"/>
      </g>
     </g>
    </g>
    <g id="text_19">
     <!-- Année -->
     <defs>
      <path d="M 34.1875 63.1875 
L 20.796875 26.90625 
L 47.609375 26.90625 
z
M 28.609375 72.90625 
L 39.796875 72.90625 
L 67.578125 0 
L 57.328125 0 
L 50.6875 18.703125 
L 17.828125 18.703125 
L 11.1875 0 
L 0.78125 0 
z
" id="DejaVuSans-65"/>
      <path d="M 54.890625 33.015625 
L 54.890625 0 
L 45.90625 0 
L 45.90625 32.71875 
Q 45.90625 40.484375 42.875 44.328125 
Q 39.84375 48.1875 33.796875 48.1875 
Q 26.515625 48.1875 22.3125 43.546875 
Q 18.109375 38.921875 18.109375 30.90625 
L 18.109375 0 
L 9.078125 0 
L 9.078125 54.6875 
L 18.109375 54.6875 
L 18.109375 46.1875 
Q 21.34375 51.125 25.703125 53.5625 
Q 30.078125 56 35.796875 56 
Q 45.21875 56 50.046875 50.171875 
Q 54.890625 44.34375 54.890625 33.015625 
z
" id="DejaVuSans-110"/>
      <path d="M 56.203125 29.59375 
L 56.203125 25.203125 
L 14.890625 25.203125 
Q 15.484375 15.921875 20.484375 11.0625 
Q 25.484375 6.203125 34.421875 6.203125 
Q 39.59375 6.203125 44.453125 7.46875 
Q 49.3125 8.734375 54.109375 11.28125 
L 54.109375 2.78125 
Q 49.265625 0.734375 44.1875 -0.34375 
Q 39.109375 -1.421875 33.890625 -1.421875 
Q 20.796875 -1.421875 13.15625 6.1875 
Q 5.515625 13.8125 5.515625 26.8125 
Q 5.515625 40.234375 12.765625 48.109375 
Q 20.015625 56 32.328125 56 
Q 43.359375 56 49.78125 48.890625 
Q 56.203125 41.796875 56.203125 29.59375 
z
M 47.21875 32.234375 
Q 47.125 39.59375 43.09375 43.984375 
Q 39.0625 48.390625 32.421875 48.390625 
Q 24.90625 48.390625 20.390625 44.140625 
Q 15.875 39.890625 15.1875 32.171875 
z
M 38.578125 79.984375 
L 48.296875 79.984375 
L 32.375 61.625 
L 24.90625 61.625 
z
" id="DejaVuSans-233"/>
      <path d="M 56.203125 29.59375 
L 56.203125 25.203125 
L 14.890625 25.203125 
Q 15.484375 15.921875 20.484375 11.0625 
Q 25.484375 6.203125 34.421875 6.203125 
Q 39.59375 6.203125 44.453125 7.46875 
Q 49.3125 8.734375 54.109375 11.28125 
L 54.109375 2.78125 
Q 49.265625 0.734375 44.1875 -0.34375 
Q 39.109375 -1.421875 33.890625 -1.421875 
Q 20.796875 -1.421875 13.15625 6.1875 
Q 5.515625 13.8125 5.515625 26.8125 
Q 5.515625 40.234375 12.765625 48.109375 
Q 20.015625 56 32.328125 56 
Q 43.359375 56 49.78125 48.890625 
Q 56.203125 41.796875 56.203125 29.59375 
z
M 47.21875 32.234375 
Q 47.125 39.59375 43.09375 43.984375 
Q 39.0625 48.390625 32.421875 48.390625 
Q 24.90625 48.390625 20.390625 44.140625 
Q 15.875 39.890625 15.1875 32.171875 
z
" id="DejaVuSans-101"/>
     </defs>
     <g style="fill:#262626;" transform="translate(361.362969 274.356406)scale(0.11 -0.11)">
      <use xlink:href="#DejaVuSans-65"/>
      <use x="68.408203" xlink:href="#DejaVuSans-110"/>
      <use x="131.787109" xlink:href="#DejaVuSans-110"/>
      <use x="195.166016" xlink:href="#DejaVuSans-233"/>
      <use x="256.689453" xlink:href="#DejaVuSans-101"/>
     </g>
    </g>
   </g>
   <g id="matplotlib.axis_2">
    <g id="ytick_1">
     <g id="line2d_37">
      <path clip-path="url(#pa2a54184b4)" d="M 48.53 223.638396 
L 709.2 223.638396 
" style="fill:none;stroke:#ffffff;stroke-linecap:round;"/>
     </g>
     <g id="line2d_38"/>
     <g id="text_20">
      <!-- 1.0 -->
      <defs>
       <path d="M 10.6875 12.40625 
L 21 12.40625 
L 21 0 
L 10.6875 0 
z
" id="DejaVuSans-46"/>
      </defs>
      <g style="fill:#262626;" transform="translate(25.626875 227.437614)scale(0.1 -0.1)">
       <use xlink:href="#DejaVuSans-49"/>
       <use x="63.623047" xlink:href="#DejaVuSans-46"/>
       <use x="95.410156" xlink:href="#DejaVuSans-48"/>
      </g>
     </g>
    </g>
    <g id="ytick_2">
     <g id="line2d_39">
      <path clip-path="url(#pa2a54184b4)" d="M 48.53 194.33893 
L 709.2 194.33893 
" style="fill:none;stroke:#ffffff;stroke-linecap:round;"/>
     </g>
     <g id="line2d_40"/>
     <g id="text_21">
      <!-- 1.5 -->
      <g style="fill:#262626;" transform="translate(25.626875 198.138149)scale(0.1 -0.1)">
       <use xlink:href="#DejaVuSans-49"/>
       <use x="63.623047" xlink:href="#DejaVuSans-46"/>
       <use x="95.410156" xlink:href="#DejaVuSans-53"/>
      </g>
     </g>
    </g>
    <g id="ytick_3">
     <g id="line2d_41">
      <path clip-path="url(#pa2a54184b4)" d="M 48.53 165.039465 
L 709.2 165.039465 
" style="fill:none;stroke:#ffffff;stroke-linecap:round;"/>
     </g>
     <g id="line2d_42"/>
     <g id="text_22">
      <!-- 2.0 -->
      <g style="fill:#262626;" transform="translate(25.626875 168.838684)scale(0.1 -0.1)">
       <use xlink:href="#DejaVuSans-50"/>
       <use x="63.623047" xlink:href="#DejaVuSans-46"/>
       <use x="95.410156" xlink:href="#DejaVuSans-48"/>
      </g>
     </g>
    </g>
    <g id="ytick_4">
     <g id="line2d_43">
      <path clip-path="url(#pa2a54184b4)" d="M 48.53 135.74 
L 709.2 135.74 
" style="fill:none;stroke:#ffffff;stroke-linecap:round;"/>
     </g>
     <g id="line2d_44"/>
     <g id="text_23">
      <!-- 2.5 -->
      <g style="fill:#262626;" transform="translate(25.626875 139.539219)scale(0.1 -0.1)">
       <use xlink:href="#DejaVuSans-50"/>
       <use x="63.623047" xlink:href="#DejaVuSans-46"/>
       <use x="95.410156" xlink:href="#DejaVuSans-53"/>
      </g>
     </g>
    </g>
    <g id="ytick_5">
     <g id="line2d_45">
      <path clip-path="url(#pa2a54184b4)" d="M 48.53 106.440535 
L 709.2 106.440535 
" style="fill:none;stroke:#ffffff;stroke-linecap:round;"/>
     </g>
     <g id="line2d_46"/>
     <g id="text_24">
      <!-- 3.0 -->
      <g style="fill:#262626;" transform="translate(25.626875 110.239754)scale(0.1 -0.1)">
       <use xlink:href="#DejaVuSans-51"/>
       <use x="63.623047" xlink:href="#DejaVuSans-46"/>
       <use x="95.410156" xlink:href="#DejaVuSans-48"/>
      </g>
     </g>
    </g>
    <g id="ytick_6">
     <g id="line2d_47">
      <path clip-path="url(#pa2a54184b4)" d="M 48.53 77.14107 
L 709.2 77.14107 
" style="fill:none;stroke:#ffffff;stroke-linecap:round;"/>
     </g>
     <g id="line2d_48"/>
     <g id="text_25">
      <!-- 3.5 -->
      <g style="fill:#262626;" transform="translate(25.626875 80.940288)scale(0.1 -0.1)">
       <use xlink:href="#DejaVuSans-51"/>
       <use x="63.623047" xlink:href="#DejaVuSans-46"/>
       <use x="95.410156" xlink:href="#DejaVuSans-53"/>
      </g>
     </g>
    </g>
    <g id="ytick_7">
     <g id="line2d_49">
      <path clip-path="url(#pa2a54184b4)" d="M 48.53 47.841604 
L 709.2 47.841604 
" style="fill:none;stroke:#ffffff;stroke-linecap:round;"/>
     </g>
     <g id="line2d_50"/>
     <g id="text_26">
      <!-- 4.0 -->
      <g style="fill:#262626;" transform="translate(25.626875 51.640823)scale(0.1 -0.1)">
       <use xlink:href="#DejaVuSans-52"/>
       <use x="63.623047" xlink:href="#DejaVuSans-46"/>
       <use x="95.410156" xlink:href="#DejaVuSans-48"/>
      </g>
     </g>
    </g>
    <g id="text_27">
     <!-- Puissance nominale [MW] -->
     <defs>
      <path d="M 19.671875 64.796875 
L 19.671875 37.40625 
L 32.078125 37.40625 
Q 38.96875 37.40625 42.71875 40.96875 
Q 46.484375 44.53125 46.484375 51.125 
Q 46.484375 57.671875 42.71875 61.234375 
Q 38.96875 64.796875 32.078125 64.796875 
z
M 9.8125 72.90625 
L 32.078125 72.90625 
Q 44.34375 72.90625 50.609375 67.359375 
Q 56.890625 61.8125 56.890625 51.125 
Q 56.890625 40.328125 50.609375 34.8125 
Q 44.34375 29.296875 32.078125 29.296875 
L 19.671875 29.296875 
L 19.671875 0 
L 9.8125 0 
z
" id="DejaVuSans-80"/>
      <path d="M 8.5 21.578125 
L 8.5 54.6875 
L 17.484375 54.6875 
L 17.484375 21.921875 
Q 17.484375 14.15625 20.5 10.265625 
Q 23.53125 6.390625 29.59375 6.390625 
Q 36.859375 6.390625 41.078125 11.03125 
Q 45.3125 15.671875 45.3125 23.6875 
L 45.3125 54.6875 
L 54.296875 54.6875 
L 54.296875 0 
L 45.3125 0 
L 45.3125 8.40625 
Q 42.046875 3.421875 37.71875 1 
Q 33.40625 -1.421875 27.6875 -1.421875 
Q 18.265625 -1.421875 13.375 4.4375 
Q 8.5 10.296875 8.5 21.578125 
z
M 31.109375 56 
z
" id="DejaVuSans-117"/>
      <path d="M 9.421875 54.6875 
L 18.40625 54.6875 
L 18.40625 0 
L 9.421875 0 
z
M 9.421875 75.984375 
L 18.40625 75.984375 
L 18.40625 64.59375 
L 9.421875 64.59375 
z
" id="DejaVuSans-105"/>
      <path d="M 44.28125 53.078125 
L 44.28125 44.578125 
Q 40.484375 46.53125 36.375 47.5 
Q 32.28125 48.484375 27.875 48.484375 
Q 21.1875 48.484375 17.84375 46.4375 
Q 14.5 44.390625 14.5 40.28125 
Q 14.5 37.15625 16.890625 35.375 
Q 19.28125 33.59375 26.515625 31.984375 
L 29.59375 31.296875 
Q 39.15625 29.25 43.1875 25.515625 
Q 47.21875 21.78125 47.21875 15.09375 
Q 47.21875 7.46875 41.1875 3.015625 
Q 35.15625 -1.421875 24.609375 -1.421875 
Q 20.21875 -1.421875 15.453125 -0.5625 
Q 10.6875 0.296875 5.421875 2 
L 5.421875 11.28125 
Q 10.40625 8.6875 15.234375 7.390625 
Q 20.0625 6.109375 24.8125 6.109375 
Q 31.15625 6.109375 34.5625 8.28125 
Q 37.984375 10.453125 37.984375 14.40625 
Q 37.984375 18.0625 35.515625 20.015625 
Q 33.0625 21.96875 24.703125 23.78125 
L 21.578125 24.515625 
Q 13.234375 26.265625 9.515625 29.90625 
Q 5.8125 33.546875 5.8125 39.890625 
Q 5.8125 47.609375 11.28125 51.796875 
Q 16.75 56 26.8125 56 
Q 31.78125 56 36.171875 55.265625 
Q 40.578125 54.546875 44.28125 53.078125 
z
" id="DejaVuSans-115"/>
      <path d="M 34.28125 27.484375 
Q 23.390625 27.484375 19.1875 25 
Q 14.984375 22.515625 14.984375 16.5 
Q 14.984375 11.71875 18.140625 8.90625 
Q 21.296875 6.109375 26.703125 6.109375 
Q 34.1875 6.109375 38.703125 11.40625 
Q 43.21875 16.703125 43.21875 25.484375 
L 43.21875 27.484375 
z
M 52.203125 31.203125 
L 52.203125 0 
L 43.21875 0 
L 43.21875 8.296875 
Q 40.140625 3.328125 35.546875 0.953125 
Q 30.953125 -1.421875 24.3125 -1.421875 
Q 15.921875 -1.421875 10.953125 3.296875 
Q 6 8.015625 6 15.921875 
Q 6 25.140625 12.171875 29.828125 
Q 18.359375 34.515625 30.609375 34.515625 
L 43.21875 34.515625 
L 43.21875 35.40625 
Q 43.21875 41.609375 39.140625 45 
Q 35.0625 48.390625 27.6875 48.390625 
Q 23 48.390625 18.546875 47.265625 
Q 14.109375 46.140625 10.015625 43.890625 
L 10.015625 52.203125 
Q 14.9375 54.109375 19.578125 55.046875 
Q 24.21875 56 28.609375 56 
Q 40.484375 56 46.34375 49.84375 
Q 52.203125 43.703125 52.203125 31.203125 
z
" id="DejaVuSans-97"/>
      <path d="M 48.78125 52.59375 
L 48.78125 44.1875 
Q 44.96875 46.296875 41.140625 47.34375 
Q 37.3125 48.390625 33.40625 48.390625 
Q 24.65625 48.390625 19.8125 42.84375 
Q 14.984375 37.3125 14.984375 27.296875 
Q 14.984375 17.28125 19.8125 11.734375 
Q 24.65625 6.203125 33.40625 6.203125 
Q 37.3125 6.203125 41.140625 7.25 
Q 44.96875 8.296875 48.78125 10.40625 
L 48.78125 2.09375 
Q 45.015625 0.34375 40.984375 -0.53125 
Q 36.96875 -1.421875 32.421875 -1.421875 
Q 20.0625 -1.421875 12.78125 6.34375 
Q 5.515625 14.109375 5.515625 27.296875 
Q 5.515625 40.671875 12.859375 48.328125 
Q 20.21875 56 33.015625 56 
Q 37.15625 56 41.109375 55.140625 
Q 45.0625 54.296875 48.78125 52.59375 
z
" id="DejaVuSans-99"/>
      <path id="DejaVuSans-32"/>
      <path d="M 30.609375 48.390625 
Q 23.390625 48.390625 19.1875 42.75 
Q 14.984375 37.109375 14.984375 27.296875 
Q 14.984375 17.484375 19.15625 11.84375 
Q 23.34375 6.203125 30.609375 6.203125 
Q 37.796875 6.203125 41.984375 11.859375 
Q 46.1875 17.53125 46.1875 27.296875 
Q 46.1875 37.015625 41.984375 42.703125 
Q 37.796875 48.390625 30.609375 48.390625 
z
M 30.609375 56 
Q 42.328125 56 49.015625 48.375 
Q 55.71875 40.765625 55.71875 27.296875 
Q 55.71875 13.875 49.015625 6.21875 
Q 42.328125 -1.421875 30.609375 -1.421875 
Q 18.84375 -1.421875 12.171875 6.21875 
Q 5.515625 13.875 5.515625 27.296875 
Q 5.515625 40.765625 12.171875 48.375 
Q 18.84375 56 30.609375 56 
z
" id="DejaVuSans-111"/>
      <path d="M 52 44.1875 
Q 55.375 50.25 60.0625 53.125 
Q 64.75 56 71.09375 56 
Q 79.640625 56 84.28125 50.015625 
Q 88.921875 44.046875 88.921875 33.015625 
L 88.921875 0 
L 79.890625 0 
L 79.890625 32.71875 
Q 79.890625 40.578125 77.09375 44.375 
Q 74.3125 48.1875 68.609375 48.1875 
Q 61.625 48.1875 57.5625 43.546875 
Q 53.515625 38.921875 53.515625 30.90625 
L 53.515625 0 
L 44.484375 0 
L 44.484375 32.71875 
Q 44.484375 40.625 41.703125 44.40625 
Q 38.921875 48.1875 33.109375 48.1875 
Q 26.21875 48.1875 22.15625 43.53125 
Q 18.109375 38.875 18.109375 30.90625 
L 18.109375 0 
L 9.078125 0 
L 9.078125 54.6875 
L 18.109375 54.6875 
L 18.109375 46.1875 
Q 21.1875 51.21875 25.484375 53.609375 
Q 29.78125 56 35.6875 56 
Q 41.65625 56 45.828125 52.96875 
Q 50 49.953125 52 44.1875 
z
" id="DejaVuSans-109"/>
      <path d="M 9.421875 75.984375 
L 18.40625 75.984375 
L 18.40625 0 
L 9.421875 0 
z
" id="DejaVuSans-108"/>
      <path d="M 8.59375 75.984375 
L 29.296875 75.984375 
L 29.296875 69 
L 17.578125 69 
L 17.578125 -6.203125 
L 29.296875 -6.203125 
L 29.296875 -13.1875 
L 8.59375 -13.1875 
z
" id="DejaVuSans-91"/>
      <path d="M 9.8125 72.90625 
L 24.515625 72.90625 
L 43.109375 23.296875 
L 61.8125 72.90625 
L 76.515625 72.90625 
L 76.515625 0 
L 66.890625 0 
L 66.890625 64.015625 
L 48.09375 14.015625 
L 38.1875 14.015625 
L 19.390625 64.015625 
L 19.390625 0 
L 9.8125 0 
z
" id="DejaVuSans-77"/>
      <path d="M 3.328125 72.90625 
L 13.28125 72.90625 
L 28.609375 11.28125 
L 43.890625 72.90625 
L 54.984375 72.90625 
L 70.3125 11.28125 
L 85.59375 72.90625 
L 95.609375 72.90625 
L 77.296875 0 
L 64.890625 0 
L 49.515625 63.28125 
L 33.984375 0 
L 21.578125 0 
z
" id="DejaVuSans-87"/>
      <path d="M 30.421875 75.984375 
L 30.421875 -13.1875 
L 9.71875 -13.1875 
L 9.71875 -6.203125 
L 21.390625 -6.203125 
L 21.390625 69 
L 9.71875 69 
L 9.71875 75.984375 
z
" id="DejaVuSans-93"/>
     </defs>
     <g style="fill:#262626;" transform="translate(19.339219 206.444219)rotate(-90)scale(0.11 -0.11)">
      <use xlink:href="#DejaVuSans-80"/>
      <use x="58.552734" xlink:href="#DejaVuSans-117"/>
      <use x="121.931641" xlink:href="#DejaVuSans-105"/>
      <use x="149.714844" xlink:href="#DejaVuSans-115"/>
      <use x="201.814453" xlink:href="#DejaVuSans-115"/>
      <use x="253.914062" xlink:href="#DejaVuSans-97"/>
      <use x="315.193359" xlink:href="#DejaVuSans-110"/>
      <use x="378.572266" xlink:href="#DejaVuSans-99"/>
      <use x="433.552734" xlink:href="#DejaVuSans-101"/>
      <use x="495.076172" xlink:href="#DejaVuSans-32"/>
      <use x="526.863281" xlink:href="#DejaVuSans-110"/>
      <use x="590.242188" xlink:href="#DejaVuSans-111"/>
      <use x="651.423828" xlink:href="#DejaVuSans-109"/>
      <use x="748.835938" xlink:href="#DejaVuSans-105"/>
      <use x="776.619141" xlink:href="#DejaVuSans-110"/>
      <use x="839.998047" xlink:href="#DejaVuSans-97"/>
      <use x="901.277344" xlink:href="#DejaVuSans-108"/>
      <use x="929.060547" xlink:href="#DejaVuSans-101"/>
      <use x="990.583984" xlink:href="#DejaVuSans-32"/>
      <use x="1022.371094" xlink:href="#DejaVuSans-91"/>
      <use x="1061.384766" xlink:href="#DejaVuSans-77"/>
      <use x="1147.664062" xlink:href="#DejaVuSans-87"/>
      <use x="1246.541016" xlink:href="#DejaVuSans-93"/>
     </g>
    </g>
   </g>
   <g id="PathCollection_1">
    <path clip-path="url(#pa2a54184b4)" d="M 643.839599 82.461516 
C 646.80466 82.461516 649.648678 81.283485 651.745293 79.186871 
C 653.841908 77.090256 655.019939 74.246237 655.019939 71.281176 
C 655.019939 68.316116 653.841908 65.472097 651.745293 63.375482 
C 649.648678 61.278868 646.80466 60.100837 643.839599 60.100837 
C 640.874538 60.100837 638.030519 61.278868 635.933905 63.375482 
C 633.83729 65.472097 632.659259 68.316116 632.659259 71.281176 
C 632.659259 74.246237 633.83729 77.090256 635.933905 79.186871 
C 638.030519 81.283485 640.874538 82.461516 643.839599 82.461516 
z
" style="fill:#84b819;fill-opacity:0.35;stroke:#84b819;stroke-opacity:0.35;stroke-width:0.3;"/>
    <path clip-path="url(#pa2a54184b4)" d="M 573.179706 180.4505 
C 577.26676 180.4505 581.186969 178.826696 584.076953 175.936713 
C 586.966937 173.046729 588.590741 169.126519 588.590741 165.039465 
C 588.590741 160.952411 586.966937 157.032202 584.076953 154.142218 
C 581.186969 151.252234 577.26676 149.62843 573.179706 149.62843 
C 569.092652 149.62843 565.172442 151.252234 562.282459 154.142218 
C 559.392475 157.032202 557.768671 160.952411 557.768671 165.039465 
C 557.768671 169.126519 559.392475 173.046729 562.282459 175.936713 
C 565.172442 178.826696 569.092652 180.4505 573.179706 180.4505 
z
" style="fill:#84b819;fill-opacity:0.35;stroke:#84b819;stroke-opacity:0.35;stroke-width:0.3;"/>
    <path clip-path="url(#pa2a54184b4)" d="M 431.85992 177.184423 
C 435.0808 177.184423 438.170195 175.904754 440.447702 173.627247 
C 442.725208 171.349741 444.004878 168.260346 444.004878 165.039465 
C 444.004878 161.818585 442.725208 158.72919 440.447702 156.451683 
C 438.170195 154.174177 435.0808 152.894507 431.85992 152.894507 
C 428.639039 152.894507 425.549644 154.174177 423.272138 156.451683 
C 420.994631 158.72919 419.714962 161.818585 419.714962 165.039465 
C 419.714962 168.260346 420.994631 171.349741 423.272138 173.627247 
C 425.549644 175.904754 428.639039 177.184423 431.85992 177.184423 
z
" style="fill:#84b819;fill-opacity:0.35;stroke:#84b819;stroke-opacity:0.35;stroke-width:0.3;"/>
    <path clip-path="url(#pa2a54184b4)" d="M 643.839599 168.361288 
C 647.82868 168.361288 651.654916 166.776409 654.475623 163.955703 
C 657.296329 161.134996 658.881208 157.30876 658.881208 153.319679 
C 658.881208 149.330598 657.296329 145.504362 654.475623 142.683655 
C 651.654916 139.862949 647.82868 138.27807 643.839599 138.27807 
C 639.850518 138.27807 636.024282 139.862949 633.203575 142.683655 
C 630.382869 145.504362 628.79799 149.330598 628.79799 153.319679 
C 628.79799 157.30876 630.382869 161.134996 633.203575 163.955703 
C 636.024282 166.776409 639.850518 168.361288 643.839599 168.361288 
z
" style="fill:#84b819;fill-opacity:0.35;stroke:#84b819;stroke-opacity:0.35;stroke-width:0.3;"/>
    <path clip-path="url(#pa2a54184b4)" d="M 290.540134 181.509134 
C 294.907941 181.509134 299.097442 179.773786 302.185948 176.68528 
C 305.274455 173.596774 307.009803 169.407273 307.009803 165.039465 
C 307.009803 160.671658 305.274455 156.482157 302.185948 153.393651 
C 299.097442 150.305144 294.907941 148.569796 290.540134 148.569796 
C 286.172326 148.569796 281.982825 150.305144 278.894319 153.393651 
C 275.805813 156.482157 274.070465 160.671658 274.070465 165.039465 
C 274.070465 169.407273 275.805813 173.596774 278.894319 176.68528 
C 281.982825 179.773786 286.172326 181.509134 290.540134 181.509134 
z
" style="fill:#84b819;fill-opacity:0.35;stroke:#84b819;stroke-opacity:0.35;stroke-width:0.3;"/>
    <path clip-path="url(#pa2a54184b4)" d="M 573.179706 205.51927 
C 576.144767 205.51927 578.988785 204.341239 581.0854 202.244625 
C 583.182015 200.14801 584.360046 197.303991 584.360046 194.33893 
C 584.360046 191.37387 583.182015 188.529851 581.0854 186.433236 
C 578.988785 184.336622 576.144767 183.158591 573.179706 183.158591 
C 570.214645 183.158591 567.370626 184.336622 565.274012 186.433236 
C 563.177397 188.529851 561.999366 191.37387 561.999366 194.33893 
C 561.999366 197.303991 563.177397 200.14801 565.274012 202.244625 
C 567.370626 204.341239 570.214645 205.51927 573.179706 205.51927 
z
" style="fill:#84b819;fill-opacity:0.35;stroke:#84b819;stroke-opacity:0.35;stroke-width:0.3;"/>
    <path clip-path="url(#pa2a54184b4)" d="M 502.519813 178.07787 
C 505.977638 178.07787 509.294306 176.704061 511.739357 174.25901 
C 514.184409 171.813958 515.558218 168.497291 515.558218 165.039465 
C 515.558218 161.58164 514.184409 158.264973 511.739357 155.819921 
C 509.294306 153.374869 505.977638 152.00106 502.519813 152.00106 
C 499.061987 152.00106 495.74532 153.374869 493.300268 155.819921 
C 490.855217 158.264973 489.481408 161.58164 489.481408 165.039465 
C 489.481408 168.497291 490.855217 171.813958 493.300268 174.25901 
C 495.74532 176.704061 499.061987 178.07787 502.519813 178.07787 
z
" style="fill:#84b819;fill-opacity:0.35;stroke:#84b819;stroke-opacity:0.35;stroke-width:0.3;"/>
    <path clip-path="url(#pa2a54184b4)" d="M 290.540134 145.864228 
C 293.22511 145.864228 295.800479 144.797476 297.699044 142.898911 
C 299.597609 141.000345 300.664362 138.424977 300.664362 135.74 
C 300.664362 133.055023 299.597609 130.479655 297.699044 128.581089 
C 295.800479 126.682524 293.22511 125.615772 290.540134 125.615772 
C 287.855157 125.615772 285.279788 126.682524 283.381223 128.581089 
C 281.482658 130.479655 280.415905 133.055023 280.415905 135.74 
C 280.415905 138.424977 281.482658 141.000345 283.381223 142.898911 
C 285.279788 144.797476 287.855157 145.864228 290.540134 145.864228 
z
" style="fill:#84b819;fill-opacity:0.35;stroke:#84b819;stroke-opacity:0.35;stroke-width:0.3;"/>
    <path clip-path="url(#pa2a54184b4)" d="M 219.880241 153.482089 
C 222.565217 153.482089 225.140586 152.415337 227.039151 150.516771 
C 228.937716 148.618206 230.004469 146.042838 230.004469 143.357861 
C 230.004469 140.672884 228.937716 138.097516 227.039151 136.19895 
C 225.140586 134.300385 222.565217 133.233633 219.880241 133.233633 
C 217.195264 133.233633 214.619895 134.300385 212.72133 136.19895 
C 210.822765 138.097516 209.756012 140.672884 209.756012 143.357861 
C 209.756012 146.042838 210.822765 148.618206 212.72133 150.516771 
C 214.619895 152.415337 217.195264 153.482089 219.880241 153.482089 
z
" style="fill:#84b819;fill-opacity:0.35;stroke:#84b819;stroke-opacity:0.35;stroke-width:0.3;"/>
    <path clip-path="url(#pa2a54184b4)" d="M 573.179706 156.404058 
C 575.551755 156.404058 577.82697 155.461633 579.504261 153.784341 
C 581.181553 152.10705 582.123978 149.831835 582.123978 147.459786 
C 582.123978 145.087737 581.181553 142.812522 579.504261 141.135231 
C 577.82697 139.457939 575.551755 138.515514 573.179706 138.515514 
C 570.807657 138.515514 568.532442 139.457939 566.855151 141.135231 
C 565.177859 142.812522 564.235434 145.087737 564.235434 147.459786 
C 564.235434 149.831835 565.177859 152.10705 566.855151 153.784341 
C 568.532442 155.461633 570.807657 156.404058 573.179706 156.404058 
z
" style="fill:#84b819;fill-opacity:0.35;stroke:#84b819;stroke-opacity:0.35;stroke-width:0.3;"/>
    <path clip-path="url(#pa2a54184b4)" d="M 643.839599 44.41338 
C 646.038547 44.41338 648.147728 43.539729 649.702619 41.984838 
C 651.25751 40.429947 652.131161 38.320766 652.131161 36.121818 
C 652.131161 33.92287 651.25751 31.813689 649.702619 30.258798 
C 648.147728 28.703907 646.038547 27.830256 643.839599 27.830256 
C 641.640651 27.830256 639.53147 28.703907 637.976579 30.258798 
C 636.421688 31.813689 635.548037 33.92287 635.548037 36.121818 
C 635.548037 38.320766 636.421688 40.429947 637.976579 41.984838 
C 639.53147 43.539729 641.640651 44.41338 643.839599 44.41338 
z
" style="fill:#84b819;fill-opacity:0.35;stroke:#84b819;stroke-opacity:0.35;stroke-width:0.3;"/>
    <path clip-path="url(#pa2a54184b4)" d="M 608.509652 152.112715 
C 610.520654 152.112715 612.449562 151.313735 613.871555 149.891742 
C 615.293548 148.469749 616.092528 146.540842 616.092528 144.52984 
C 616.092528 142.518837 615.293548 140.58993 613.871555 139.167937 
C 612.449562 137.745944 610.520654 136.946964 608.509652 136.946964 
C 606.49865 136.946964 604.569743 137.745944 603.14775 139.167937 
C 601.725757 140.58993 600.926777 142.518837 600.926777 144.52984 
C 600.926777 146.540842 601.725757 148.469749 603.14775 149.891742 
C 604.569743 151.313735 606.49865 152.112715 608.509652 152.112715 
z
" style="fill:#84b819;fill-opacity:0.35;stroke:#84b819;stroke-opacity:0.35;stroke-width:0.3;"/>
    <path clip-path="url(#pa2a54184b4)" d="M 537.849759 113.24127 
C 539.653335 113.24127 541.383285 112.524702 542.658605 111.249381 
C 543.933926 109.97406 544.650495 108.244111 544.650495 106.440535 
C 544.650495 104.636959 543.933926 102.90701 542.658605 101.631689 
C 541.383285 100.356368 539.653335 99.6398 537.849759 99.6398 
C 536.046183 99.6398 534.316234 100.356368 533.040913 101.631689 
C 531.765592 102.90701 531.049024 104.636959 531.049024 106.440535 
C 531.049024 108.244111 531.765592 109.97406 533.040913 111.249381 
C 534.316234 112.524702 536.046183 113.24127 537.849759 113.24127 
z
" style="fill:#84b819;fill-opacity:0.35;stroke:#84b819;stroke-opacity:0.35;stroke-width:0.3;"/>
    <path clip-path="url(#pa2a54184b4)" d="M 361.200027 150.402878 
C 365.088668 150.402878 368.818563 148.857905 371.568247 146.108221 
C 374.317932 143.358536 375.862905 139.628641 375.862905 135.74 
C 375.862905 131.851359 374.317932 128.121464 371.568247 125.371779 
C 368.818563 122.622095 365.088668 121.077122 361.200027 121.077122 
C 357.311386 121.077122 353.58149 122.622095 350.831806 125.371779 
C 348.082122 128.121464 346.537148 131.851359 346.537148 135.74 
C 346.537148 139.628641 348.082122 143.358536 350.831806 146.108221 
C 353.58149 148.857905 357.311386 150.402878 361.200027 150.402878 
z
" style="fill:#84b819;fill-opacity:0.35;stroke:#84b819;stroke-opacity:0.35;stroke-width:0.3;"/>
    <path clip-path="url(#pa2a54184b4)" d="M 431.85992 141.060447 
C 434.824981 141.060447 437.668999 139.882416 439.765614 137.785801 
C 441.862229 135.689187 443.04026 132.845168 443.04026 129.880107 
C 443.04026 126.915046 441.862229 124.071027 439.765614 121.974413 
C 437.668999 119.877798 434.824981 118.699767 431.85992 118.699767 
C 428.894859 118.699767 426.05084 119.877798 423.954226 121.974413 
C 421.857611 124.071027 420.67958 126.915046 420.67958 129.880107 
C 420.67958 132.845168 421.857611 135.689187 423.954226 137.785801 
C 426.05084 139.882416 428.894859 141.060447 431.85992 141.060447 
z
" style="fill:#84b819;fill-opacity:0.35;stroke:#84b819;stroke-opacity:0.35;stroke-width:0.3;"/>
    <path clip-path="url(#pa2a54184b4)" d="M 502.519813 170.401081 
C 504.718761 170.401081 506.827942 169.527429 508.382833 167.972538 
C 509.937724 166.417647 510.811375 164.308467 510.811375 162.109519 
C 510.811375 159.910571 509.937724 157.80139 508.382833 156.246499 
C 506.827942 154.691608 504.718761 153.817957 502.519813 153.817957 
C 500.320865 153.817957 498.211684 154.691608 496.656793 156.246499 
C 495.101902 157.80139 494.228251 159.910571 494.228251 162.109519 
C 494.228251 164.308467 495.101902 166.417647 496.656793 167.972538 
C 498.211684 169.527429 500.320865 170.401081 502.519813 170.401081 
z
" style="fill:#84b819;fill-opacity:0.35;stroke:#84b819;stroke-opacity:0.35;stroke-width:0.3;"/>
    <path clip-path="url(#pa2a54184b4)" d="M 679.169545 154.199496 
C 682.510999 154.199496 685.716046 152.871923 688.07881 150.509158 
C 690.441575 148.146393 691.769149 144.941347 691.769149 141.599893 
C 691.769149 138.258439 690.441575 135.053393 688.07881 132.690628 
C 685.716046 130.327864 682.510999 129.00029 679.169545 129.00029 
C 675.828092 129.00029 672.623045 130.327864 670.260281 132.690628 
C 667.897516 135.053393 666.569942 138.258439 666.569942 141.599893 
C 666.569942 144.941347 667.897516 148.146393 670.260281 150.509158 
C 672.623045 152.871923 675.828092 154.199496 679.169545 154.199496 
z
" style="fill:#84b819;fill-opacity:0.35;stroke:#84b819;stroke-opacity:0.35;stroke-width:0.3;"/>
    <path clip-path="url(#pa2a54184b4)" d="M 325.87008 180.081074 
C 329.859162 180.081074 333.685397 178.496195 336.506104 175.675489 
C 339.32681 172.854782 340.911689 169.028547 340.911689 165.039465 
C 340.911689 161.050384 339.32681 157.224148 336.506104 154.403442 
C 333.685397 151.582735 329.859162 149.997856 325.87008 149.997856 
C 321.880999 149.997856 318.054763 151.582735 315.234057 154.403442 
C 312.41335 157.224148 310.828471 161.050384 310.828471 165.039465 
C 310.828471 169.028547 312.41335 172.854782 315.234057 175.675489 
C 318.054763 178.496195 321.880999 180.081074 325.87008 180.081074 
z
" style="fill:#84b819;fill-opacity:0.35;stroke:#84b819;stroke-opacity:0.35;stroke-width:0.3;"/>
    <path clip-path="url(#pa2a54184b4)" d="M 502.519813 238.344315 
C 504.088776 238.344315 505.593689 237.72096 506.703113 236.611535 
C 507.812537 235.502111 508.435893 233.997198 508.435893 232.428235 
C 508.435893 230.859273 507.812537 229.354359 506.703113 228.244935 
C 505.593689 227.135511 504.088776 226.512156 502.519813 226.512156 
C 500.95085 226.512156 499.445937 227.135511 498.336513 228.244935 
C 497.227089 229.354359 496.603733 230.859273 496.603733 232.428235 
C 496.603733 233.997198 497.227089 235.502111 498.336513 236.611535 
C 499.445937 237.72096 500.95085 238.344315 502.519813 238.344315 
z
" style="fill:#84b819;fill-opacity:0.35;stroke:#84b819;stroke-opacity:0.35;stroke-width:0.3;"/>
    <path clip-path="url(#pa2a54184b4)" d="M 537.849759 191.959988 
C 539.860761 191.959988 541.789669 191.161008 543.211662 189.739015 
C 544.633655 188.317022 545.432635 186.388114 545.432635 184.377112 
C 545.432635 182.36611 544.633655 180.437203 543.211662 179.01521 
C 541.789669 177.593216 539.860761 176.794237 537.849759 176.794237 
C 535.838757 176.794237 533.90985 177.593216 532.487857 179.01521 
C 531.065864 180.437203 530.266884 182.36611 530.266884 184.377112 
C 530.266884 186.388114 531.065864 188.317022 532.487857 189.739015 
C 533.90985 191.161008 535.838757 191.959988 537.849759 191.959988 
z
" style="fill:#84b819;fill-opacity:0.35;stroke:#84b819;stroke-opacity:0.35;stroke-width:0.3;"/>
    <path clip-path="url(#pa2a54184b4)" d="M 396.529973 173.331027 
C 398.728921 173.331027 400.838102 172.457376 402.392993 170.902485 
C 403.947884 169.347594 404.821535 167.238413 404.821535 165.039465 
C 404.821535 162.840517 403.947884 160.731337 402.392993 159.176446 
C 400.838102 157.621555 398.728921 156.747903 396.529973 156.747903 
C 394.331025 156.747903 392.221845 157.621555 390.666954 159.176446 
C 389.112063 160.731337 388.238411 162.840517 388.238411 165.039465 
C 388.238411 167.238413 389.112063 169.347594 390.666954 170.902485 
C 392.221845 172.457376 394.331025 173.331027 396.529973 173.331027 
z
" style="fill:#84b819;fill-opacity:0.35;stroke:#84b819;stroke-opacity:0.35;stroke-width:0.3;"/>
    <path clip-path="url(#pa2a54184b4)" d="M 467.189866 173.983737 
C 469.561915 173.983737 471.83713 173.041312 473.514422 171.364021 
C 475.191713 169.686729 476.134138 167.411514 476.134138 165.039465 
C 476.134138 162.667417 475.191713 160.392202 473.514422 158.71491 
C 471.83713 157.037618 469.561915 156.095193 467.189866 156.095193 
C 464.817818 156.095193 462.542603 157.037618 460.865311 158.71491 
C 459.188019 160.392202 458.245594 162.667417 458.245594 165.039465 
C 458.245594 167.411514 459.188019 169.686729 460.865311 171.364021 
C 462.542603 173.041312 464.817818 173.983737 467.189866 173.983737 
z
" style="fill:#84b819;fill-opacity:0.35;stroke:#84b819;stroke-opacity:0.35;stroke-width:0.3;"/>
   </g>
   <g id="line2d_51">
    <path clip-path="url(#pa2a54184b4)" d="M 78.560455 235.358182 
L 113.890401 223.638396 
L 149.220348 200.198824 
L 184.550294 182.619144 
L 219.880241 176.759251 
L 255.210187 170.899358 
L 290.540134 170.899358 
L 325.87008 159.179572 
L 361.200027 159.179572 
L 396.529973 153.319679 
L 431.85992 153.319679 
L 467.189866 147.459786 
L 502.519813 147.459786 
L 537.849759 147.459786 
L 573.179706 141.599893 
" style="fill:none;stroke:#006564;stroke-linecap:round;stroke-width:1.75;"/>
    <defs>
     <path d="M -3.5 3.5 
L 3.5 3.5 
L 3.5 -3.5 
L -3.5 -3.5 
z
" id="m6b2068cad3"/>
    </defs>
    <g clip-path="url(#pa2a54184b4)">
     <use style="fill:#f29400;" x="78.560455" xlink:href="#m6b2068cad3" y="235.358182"/>
     <use style="fill:#f29400;" x="113.890401" xlink:href="#m6b2068cad3" y="223.638396"/>
     <use style="fill:#f29400;" x="149.220348" xlink:href="#m6b2068cad3" y="200.198824"/>
     <use style="fill:#f29400;" x="184.550294" xlink:href="#m6b2068cad3" y="182.619144"/>
     <use style="fill:#f29400;" x="219.880241" xlink:href="#m6b2068cad3" y="176.759251"/>
     <use style="fill:#f29400;" x="255.210187" xlink:href="#m6b2068cad3" y="170.899358"/>
     <use style="fill:#f29400;" x="290.540134" xlink:href="#m6b2068cad3" y="170.899358"/>
     <use style="fill:#f29400;" x="325.87008" xlink:href="#m6b2068cad3" y="159.179572"/>
     <use style="fill:#f29400;" x="361.200027" xlink:href="#m6b2068cad3" y="159.179572"/>
     <use style="fill:#f29400;" x="396.529973" xlink:href="#m6b2068cad3" y="153.319679"/>
     <use style="fill:#f29400;" x="431.85992" xlink:href="#m6b2068cad3" y="153.319679"/>
     <use style="fill:#f29400;" x="467.189866" xlink:href="#m6b2068cad3" y="147.459786"/>
     <use style="fill:#f29400;" x="502.519813" xlink:href="#m6b2068cad3" y="147.459786"/>
     <use style="fill:#f29400;" x="537.849759" xlink:href="#m6b2068cad3" y="147.459786"/>
     <use style="fill:#f29400;" x="573.179706" xlink:href="#m6b2068cad3" y="141.599893"/>
    </g>
   </g>
   <g id="patch_3">
    <path d="M 48.53 245.32 
L 48.53 26.16 
" style="fill:none;"/>
   </g>
   <g id="patch_4">
    <path d="M 709.2 245.32 
L 709.2 26.16 
" style="fill:none;"/>
   </g>
   <g id="patch_5">
    <path d="M 48.53 245.32 
L 709.2 245.32 
" style="fill:none;"/>
   </g>
   <g id="patch_6">
    <path d="M 48.53 26.16 
L 709.2 26.16 
" style="fill:none;"/>
   </g>
   <g id="text_28">
    <!-- 10 -->
    <g style="fill:#262626;" transform="translate(637.477099 74.040551)scale(0.1 -0.1)">
     <use xlink:href="#DejaVuSans-49"/>
     <use x="63.623047" xlink:href="#DejaVuSans-48"/>
    </g>
   </g>
   <g id="text_29">
    <!-- 20 -->
    <g style="fill:#262626;" transform="translate(566.817206 167.79884)scale(0.1 -0.1)">
     <use xlink:href="#DejaVuSans-50"/>
     <use x="63.623047" xlink:href="#DejaVuSans-48"/>
    </g>
   </g>
   <g id="text_30">
    <!-- 12 -->
    <g style="fill:#262626;" transform="translate(425.49742 167.79884)scale(0.1 -0.1)">
     <use xlink:href="#DejaVuSans-49"/>
     <use x="63.623047" xlink:href="#DejaVuSans-50"/>
    </g>
   </g>
   <g id="text_31">
    <!-- 19 -->
    <g style="fill:#262626;" transform="translate(637.477099 156.079054)scale(0.1 -0.1)">
     <use xlink:href="#DejaVuSans-49"/>
     <use x="63.623047" xlink:href="#DejaVuSans-57"/>
    </g>
   </g>
   <g id="text_32">
    <!-- 23 -->
    <g style="fill:#262626;" transform="translate(284.177634 167.79884)scale(0.1 -0.1)">
     <use xlink:href="#DejaVuSans-50"/>
     <use x="63.623047" xlink:href="#DejaVuSans-51"/>
    </g>
   </g>
   <g id="text_33">
    <!-- 10 -->
    <g style="fill:#262626;" transform="translate(566.817206 197.098305)scale(0.1 -0.1)">
     <use xlink:href="#DejaVuSans-49"/>
     <use x="63.623047" xlink:href="#DejaVuSans-48"/>
    </g>
   </g>
   <g id="text_34">
    <!-- 14 -->
    <g style="fill:#262626;" transform="translate(496.157313 167.79884)scale(0.1 -0.1)">
     <use xlink:href="#DejaVuSans-49"/>
     <use x="63.623047" xlink:href="#DejaVuSans-52"/>
    </g>
   </g>
   <g id="text_35">
    <!-- 8 -->
    <g style="fill:#262626;" transform="translate(287.358884 138.499375)scale(0.1 -0.1)">
     <use xlink:href="#DejaVuSans-56"/>
    </g>
   </g>
   <g id="text_36">
    <!-- 8 -->
    <g style="fill:#262626;" transform="translate(216.698991 146.117236)scale(0.1 -0.1)">
     <use xlink:href="#DejaVuSans-56"/>
    </g>
   </g>
   <g id="text_37">
    <!-- 6 -->
    <g style="fill:#262626;" transform="translate(569.998456 150.219161)scale(0.1 -0.1)">
     <use xlink:href="#DejaVuSans-54"/>
    </g>
   </g>
   <g id="text_38">
    <!-- 5 -->
    <g style="fill:#262626;" transform="translate(640.658349 38.881193)scale(0.1 -0.1)">
     <use xlink:href="#DejaVuSans-53"/>
    </g>
   </g>
   <g id="text_39">
    <!-- 4 -->
    <g style="fill:#262626;" transform="translate(605.328402 147.289215)scale(0.1 -0.1)">
     <use xlink:href="#DejaVuSans-52"/>
    </g>
   </g>
   <g id="text_40">
    <!-- 3 -->
    <g style="fill:#262626;" transform="translate(534.668509 109.19991)scale(0.1 -0.1)">
     <use xlink:href="#DejaVuSans-51"/>
    </g>
   </g>
   <g id="text_41">
    <!-- 18 -->
    <g style="fill:#262626;" transform="translate(354.837527 138.499375)scale(0.1 -0.1)">
     <use xlink:href="#DejaVuSans-49"/>
     <use x="63.623047" xlink:href="#DejaVuSans-56"/>
    </g>
   </g>
   <g id="text_42">
    <!-- 10 -->
    <g style="fill:#262626;" transform="translate(425.49742 132.639482)scale(0.1 -0.1)">
     <use xlink:href="#DejaVuSans-49"/>
     <use x="63.623047" xlink:href="#DejaVuSans-48"/>
    </g>
   </g>
   <g id="text_43">
    <!-- 5 -->
    <g style="fill:#262626;" transform="translate(499.338563 164.868894)scale(0.1 -0.1)">
     <use xlink:href="#DejaVuSans-53"/>
    </g>
   </g>
   <g id="text_44">
    <!-- 13 -->
    <g style="fill:#262626;" transform="translate(672.807045 144.359268)scale(0.1 -0.1)">
     <use xlink:href="#DejaVuSans-49"/>
     <use x="63.623047" xlink:href="#DejaVuSans-51"/>
    </g>
   </g>
   <g id="text_45">
    <!-- 19 -->
    <g style="fill:#262626;" transform="translate(319.50758 167.79884)scale(0.1 -0.1)">
     <use xlink:href="#DejaVuSans-49"/>
     <use x="63.623047" xlink:href="#DejaVuSans-57"/>
    </g>
   </g>
   <g id="text_46">
    <!-- 2 -->
    <g style="fill:#262626;" transform="translate(499.338563 235.18761)scale(0.1 -0.1)">
     <use xlink:href="#DejaVuSans-50"/>
    </g>
   </g>
   <g id="text_47">
    <!-- 4 -->
    <g style="fill:#262626;" transform="translate(534.668509 187.136487)scale(0.1 -0.1)">
     <use xlink:href="#DejaVuSans-52"/>
    </g>
   </g>
   <g id="text_48">
    <!-- 5 -->
    <g style="fill:#262626;" transform="translate(393.348723 167.79884)scale(0.1 -0.1)">
     <use xlink:href="#DejaVuSans-53"/>
    </g>
   </g>
   <g id="text_49">
    <!-- 6 -->
    <g style="fill:#262626;" transform="translate(464.008616 167.79884)scale(0.1 -0.1)">
     <use xlink:href="#DejaVuSans-54"/>
    </g>
   </g>
   <g id="text_50">
    <!-- Puissances nominales des machines installées en France et exploitation chez Valemo -->
    <defs>
     <path d="M 45.40625 46.390625 
L 45.40625 75.984375 
L 54.390625 75.984375 
L 54.390625 0 
L 45.40625 0 
L 45.40625 8.203125 
Q 42.578125 3.328125 38.25 0.953125 
Q 33.9375 -1.421875 27.875 -1.421875 
Q 17.96875 -1.421875 11.734375 6.484375 
Q 5.515625 14.40625 5.515625 27.296875 
Q 5.515625 40.1875 11.734375 48.09375 
Q 17.96875 56 27.875 56 
Q 33.9375 56 38.25 53.625 
Q 42.578125 51.265625 45.40625 46.390625 
z
M 14.796875 27.296875 
Q 14.796875 17.390625 18.875 11.75 
Q 22.953125 6.109375 30.078125 6.109375 
Q 37.203125 6.109375 41.296875 11.75 
Q 45.40625 17.390625 45.40625 27.296875 
Q 45.40625 37.203125 41.296875 42.84375 
Q 37.203125 48.484375 30.078125 48.484375 
Q 22.953125 48.484375 18.875 42.84375 
Q 14.796875 37.203125 14.796875 27.296875 
z
" id="DejaVuSans-100"/>
     <path d="M 54.890625 33.015625 
L 54.890625 0 
L 45.90625 0 
L 45.90625 32.71875 
Q 45.90625 40.484375 42.875 44.328125 
Q 39.84375 48.1875 33.796875 48.1875 
Q 26.515625 48.1875 22.3125 43.546875 
Q 18.109375 38.921875 18.109375 30.90625 
L 18.109375 0 
L 9.078125 0 
L 9.078125 75.984375 
L 18.109375 75.984375 
L 18.109375 46.1875 
Q 21.34375 51.125 25.703125 53.5625 
Q 30.078125 56 35.796875 56 
Q 45.21875 56 50.046875 50.171875 
Q 54.890625 44.34375 54.890625 33.015625 
z
" id="DejaVuSans-104"/>
     <path d="M 18.3125 70.21875 
L 18.3125 54.6875 
L 36.8125 54.6875 
L 36.8125 47.703125 
L 18.3125 47.703125 
L 18.3125 18.015625 
Q 18.3125 11.328125 20.140625 9.421875 
Q 21.96875 7.515625 27.59375 7.515625 
L 36.8125 7.515625 
L 36.8125 0 
L 27.59375 0 
Q 17.1875 0 13.234375 3.875 
Q 9.28125 7.765625 9.28125 18.015625 
L 9.28125 47.703125 
L 2.6875 47.703125 
L 2.6875 54.6875 
L 9.28125 54.6875 
L 9.28125 70.21875 
z
" id="DejaVuSans-116"/>
     <path d="M 9.8125 72.90625 
L 51.703125 72.90625 
L 51.703125 64.59375 
L 19.671875 64.59375 
L 19.671875 43.109375 
L 48.578125 43.109375 
L 48.578125 34.8125 
L 19.671875 34.8125 
L 19.671875 0 
L 9.8125 0 
z
" id="DejaVuSans-70"/>
     <path d="M 41.109375 46.296875 
Q 39.59375 47.171875 37.8125 47.578125 
Q 36.03125 48 33.890625 48 
Q 26.265625 48 22.1875 43.046875 
Q 18.109375 38.09375 18.109375 28.8125 
L 18.109375 0 
L 9.078125 0 
L 9.078125 54.6875 
L 18.109375 54.6875 
L 18.109375 46.1875 
Q 20.953125 51.171875 25.484375 53.578125 
Q 30.03125 56 36.53125 56 
Q 37.453125 56 38.578125 55.875 
Q 39.703125 55.765625 41.0625 55.515625 
z
" id="DejaVuSans-114"/>
     <path d="M 54.890625 54.6875 
L 35.109375 28.078125 
L 55.90625 0 
L 45.3125 0 
L 29.390625 21.484375 
L 13.484375 0 
L 2.875 0 
L 24.125 28.609375 
L 4.6875 54.6875 
L 15.28125 54.6875 
L 29.78125 35.203125 
L 44.28125 54.6875 
z
" id="DejaVuSans-120"/>
     <path d="M 18.109375 8.203125 
L 18.109375 -20.796875 
L 9.078125 -20.796875 
L 9.078125 54.6875 
L 18.109375 54.6875 
L 18.109375 46.390625 
Q 20.953125 51.265625 25.265625 53.625 
Q 29.59375 56 35.59375 56 
Q 45.5625 56 51.78125 48.09375 
Q 58.015625 40.1875 58.015625 27.296875 
Q 58.015625 14.40625 51.78125 6.484375 
Q 45.5625 -1.421875 35.59375 -1.421875 
Q 29.59375 -1.421875 25.265625 0.953125 
Q 20.953125 3.328125 18.109375 8.203125 
z
M 48.6875 27.296875 
Q 48.6875 37.203125 44.609375 42.84375 
Q 40.53125 48.484375 33.40625 48.484375 
Q 26.265625 48.484375 22.1875 42.84375 
Q 18.109375 37.203125 18.109375 27.296875 
Q 18.109375 17.390625 22.1875 11.75 
Q 26.265625 6.109375 33.40625 6.109375 
Q 40.53125 6.109375 44.609375 11.75 
Q 48.6875 17.390625 48.6875 27.296875 
z
" id="DejaVuSans-112"/>
     <path d="M 5.515625 54.6875 
L 48.1875 54.6875 
L 48.1875 46.484375 
L 14.40625 7.171875 
L 48.1875 7.171875 
L 48.1875 0 
L 4.296875 0 
L 4.296875 8.203125 
L 38.09375 47.515625 
L 5.515625 47.515625 
z
" id="DejaVuSans-122"/>
     <path d="M 28.609375 0 
L 0.78125 72.90625 
L 11.078125 72.90625 
L 34.1875 11.53125 
L 57.328125 72.90625 
L 67.578125 72.90625 
L 39.796875 0 
z
" id="DejaVuSans-86"/>
    </defs>
    <g style="fill:#262626;" transform="translate(48.53 20.16)scale(0.12 -0.12)">
     <use xlink:href="#DejaVuSans-80"/>
     <use x="58.552734" xlink:href="#DejaVuSans-117"/>
     <use x="121.931641" xlink:href="#DejaVuSans-105"/>
     <use x="149.714844" xlink:href="#DejaVuSans-115"/>
     <use x="201.814453" xlink:href="#DejaVuSans-115"/>
     <use x="253.914062" xlink:href="#DejaVuSans-97"/>
     <use x="315.193359" xlink:href="#DejaVuSans-110"/>
     <use x="378.572266" xlink:href="#DejaVuSans-99"/>
     <use x="433.552734" xlink:href="#DejaVuSans-101"/>
     <use x="495.076172" xlink:href="#DejaVuSans-115"/>
     <use x="547.175781" xlink:href="#DejaVuSans-32"/>
     <use x="578.962891" xlink:href="#DejaVuSans-110"/>
     <use x="642.341797" xlink:href="#DejaVuSans-111"/>
     <use x="703.523438" xlink:href="#DejaVuSans-109"/>
     <use x="800.935547" xlink:href="#DejaVuSans-105"/>
     <use x="828.71875" xlink:href="#DejaVuSans-110"/>
     <use x="892.097656" xlink:href="#DejaVuSans-97"/>
     <use x="953.376953" xlink:href="#DejaVuSans-108"/>
     <use x="981.160156" xlink:href="#DejaVuSans-101"/>
     <use x="1042.683594" xlink:href="#DejaVuSans-115"/>
     <use x="1094.783203" xlink:href="#DejaVuSans-32"/>
     <use x="1126.570312" xlink:href="#DejaVuSans-100"/>
     <use x="1190.046875" xlink:href="#DejaVuSans-101"/>
     <use x="1251.570312" xlink:href="#DejaVuSans-115"/>
     <use x="1303.669922" xlink:href="#DejaVuSans-32"/>
     <use x="1335.457031" xlink:href="#DejaVuSans-109"/>
     <use x="1432.869141" xlink:href="#DejaVuSans-97"/>
     <use x="1494.148438" xlink:href="#DejaVuSans-99"/>
     <use x="1549.128906" xlink:href="#DejaVuSans-104"/>
     <use x="1612.507812" xlink:href="#DejaVuSans-105"/>
     <use x="1640.291016" xlink:href="#DejaVuSans-110"/>
     <use x="1703.669922" xlink:href="#DejaVuSans-101"/>
     <use x="1765.193359" xlink:href="#DejaVuSans-115"/>
     <use x="1817.292969" xlink:href="#DejaVuSans-32"/>
     <use x="1849.080078" xlink:href="#DejaVuSans-105"/>
     <use x="1876.863281" xlink:href="#DejaVuSans-110"/>
     <use x="1940.242188" xlink:href="#DejaVuSans-115"/>
     <use x="1992.341797" xlink:href="#DejaVuSans-116"/>
     <use x="2031.550781" xlink:href="#DejaVuSans-97"/>
     <use x="2092.830078" xlink:href="#DejaVuSans-108"/>
     <use x="2120.613281" xlink:href="#DejaVuSans-108"/>
     <use x="2148.396484" xlink:href="#DejaVuSans-233"/>
     <use x="2209.919922" xlink:href="#DejaVuSans-101"/>
     <use x="2271.443359" xlink:href="#DejaVuSans-115"/>
     <use x="2323.542969" xlink:href="#DejaVuSans-32"/>
     <use x="2355.330078" xlink:href="#DejaVuSans-101"/>
     <use x="2416.853516" xlink:href="#DejaVuSans-110"/>
     <use x="2480.232422" xlink:href="#DejaVuSans-32"/>
     <use x="2512.019531" xlink:href="#DejaVuSans-70"/>
     <use x="2562.289062" xlink:href="#DejaVuSans-114"/>
     <use x="2603.402344" xlink:href="#DejaVuSans-97"/>
     <use x="2664.681641" xlink:href="#DejaVuSans-110"/>
     <use x="2728.060547" xlink:href="#DejaVuSans-99"/>
     <use x="2783.041016" xlink:href="#DejaVuSans-101"/>
     <use x="2844.564453" xlink:href="#DejaVuSans-32"/>
     <use x="2876.351562" xlink:href="#DejaVuSans-101"/>
     <use x="2937.875" xlink:href="#DejaVuSans-116"/>
     <use x="2977.083984" xlink:href="#DejaVuSans-32"/>
     <use x="3008.871094" xlink:href="#DejaVuSans-101"/>
     <use x="3068.644531" xlink:href="#DejaVuSans-120"/>
     <use x="3127.824219" xlink:href="#DejaVuSans-112"/>
     <use x="3191.300781" xlink:href="#DejaVuSans-108"/>
     <use x="3219.083984" xlink:href="#DejaVuSans-111"/>
     <use x="3280.265625" xlink:href="#DejaVuSans-105"/>
     <use x="3308.048828" xlink:href="#DejaVuSans-116"/>
     <use x="3347.257812" xlink:href="#DejaVuSans-97"/>
     <use x="3408.537109" xlink:href="#DejaVuSans-116"/>
     <use x="3447.746094" xlink:href="#DejaVuSans-105"/>
     <use x="3475.529297" xlink:href="#DejaVuSans-111"/>
     <use x="3536.710938" xlink:href="#DejaVuSans-110"/>
     <use x="3600.089844" xlink:href="#DejaVuSans-32"/>
     <use x="3631.876953" xlink:href="#DejaVuSans-99"/>
     <use x="3686.857422" xlink:href="#DejaVuSans-104"/>
     <use x="3750.236328" xlink:href="#DejaVuSans-101"/>
     <use x="3811.759766" xlink:href="#DejaVuSans-122"/>
     <use x="3864.25" xlink:href="#DejaVuSans-32"/>
     <use x="3896.037109" xlink:href="#DejaVuSans-86"/>
     <use x="3956.695312" xlink:href="#DejaVuSans-97"/>
     <use x="4017.974609" xlink:href="#DejaVuSans-108"/>
     <use x="4045.757812" xlink:href="#DejaVuSans-101"/>
     <use x="4107.28125" xlink:href="#DejaVuSans-109"/>
     <use x="4204.693359" xlink:href="#DejaVuSans-111"/>
    </g>
   </g>
   <g id="legend_1">
    <g id="line2d_52">
     <path d="M 57.53 39.658437 
L 77.53 39.658437 
" style="fill:none;stroke:#006564;stroke-linecap:round;stroke-width:1.75;"/>
    </g>
    <g id="line2d_53">
     <defs>
      <path d="M -2.625 2.625 
L 2.625 2.625 
L 2.625 -2.625 
L -2.625 -2.625 
z
" id="mc82009c6d6"/>
     </defs>
     <g>
      <use style="fill:#f29400;" x="67.53" xlink:href="#mc82009c6d6" y="39.658437"/>
     </g>
    </g>
    <g id="text_51">
     <!-- Puissance moyenne des machines installées en France -->
     <defs>
      <path d="M 32.171875 -5.078125 
Q 28.375 -14.84375 24.75 -17.8125 
Q 21.140625 -20.796875 15.09375 -20.796875 
L 7.90625 -20.796875 
L 7.90625 -13.28125 
L 13.1875 -13.28125 
Q 16.890625 -13.28125 18.9375 -11.515625 
Q 21 -9.765625 23.484375 -3.21875 
L 25.09375 0.875 
L 2.984375 54.6875 
L 12.5 54.6875 
L 29.59375 11.921875 
L 46.6875 54.6875 
L 56.203125 54.6875 
z
" id="DejaVuSans-121"/>
     </defs>
     <g style="fill:#262626;" transform="translate(85.53 43.158437)scale(0.1 -0.1)">
      <use xlink:href="#DejaVuSans-80"/>
      <use x="58.552734" xlink:href="#DejaVuSans-117"/>
      <use x="121.931641" xlink:href="#DejaVuSans-105"/>
      <use x="149.714844" xlink:href="#DejaVuSans-115"/>
      <use x="201.814453" xlink:href="#DejaVuSans-115"/>
      <use x="253.914062" xlink:href="#DejaVuSans-97"/>
      <use x="315.193359" xlink:href="#DejaVuSans-110"/>
      <use x="378.572266" xlink:href="#DejaVuSans-99"/>
      <use x="433.552734" xlink:href="#DejaVuSans-101"/>
      <use x="495.076172" xlink:href="#DejaVuSans-32"/>
      <use x="526.863281" xlink:href="#DejaVuSans-109"/>
      <use x="624.275391" xlink:href="#DejaVuSans-111"/>
      <use x="685.457031" xlink:href="#DejaVuSans-121"/>
      <use x="744.636719" xlink:href="#DejaVuSans-101"/>
      <use x="806.160156" xlink:href="#DejaVuSans-110"/>
      <use x="869.539062" xlink:href="#DejaVuSans-110"/>
      <use x="932.917969" xlink:href="#DejaVuSans-101"/>
      <use x="994.441406" xlink:href="#DejaVuSans-32"/>
      <use x="1026.228516" xlink:href="#DejaVuSans-100"/>
      <use x="1089.705078" xlink:href="#DejaVuSans-101"/>
      <use x="1151.228516" xlink:href="#DejaVuSans-115"/>
      <use x="1203.328125" xlink:href="#DejaVuSans-32"/>
      <use x="1235.115234" xlink:href="#DejaVuSans-109"/>
      <use x="1332.527344" xlink:href="#DejaVuSans-97"/>
      <use x="1393.806641" xlink:href="#DejaVuSans-99"/>
      <use x="1448.787109" xlink:href="#DejaVuSans-104"/>
      <use x="1512.166016" xlink:href="#DejaVuSans-105"/>
      <use x="1539.949219" xlink:href="#DejaVuSans-110"/>
      <use x="1603.328125" xlink:href="#DejaVuSans-101"/>
      <use x="1664.851562" xlink:href="#DejaVuSans-115"/>
      <use x="1716.951172" xlink:href="#DejaVuSans-32"/>
      <use x="1748.738281" xlink:href="#DejaVuSans-105"/>
      <use x="1776.521484" xlink:href="#DejaVuSans-110"/>
      <use x="1839.900391" xlink:href="#DejaVuSans-115"/>
      <use x="1892" xlink:href="#DejaVuSans-116"/>
      <use x="1931.208984" xlink:href="#DejaVuSans-97"/>
      <use x="1992.488281" xlink:href="#DejaVuSans-108"/>
      <use x="2020.271484" xlink:href="#DejaVuSans-108"/>
      <use x="2048.054688" xlink:href="#DejaVuSans-233"/>
      <use x="2109.578125" xlink:href="#DejaVuSans-101"/>
      <use x="2171.101562" xlink:href="#DejaVuSans-115"/>
      <use x="2223.201172" xlink:href="#DejaVuSans-32"/>
      <use x="2254.988281" xlink:href="#DejaVuSans-101"/>
      <use x="2316.511719" xlink:href="#DejaVuSans-110"/>
      <use x="2379.890625" xlink:href="#DejaVuSans-32"/>
      <use x="2411.677734" xlink:href="#DejaVuSans-70"/>
      <use x="2461.947266" xlink:href="#DejaVuSans-114"/>
      <use x="2503.060547" xlink:href="#DejaVuSans-97"/>
      <use x="2564.339844" xlink:href="#DejaVuSans-110"/>
      <use x="2627.71875" xlink:href="#DejaVuSans-99"/>
      <use x="2682.699219" xlink:href="#DejaVuSans-101"/>
     </g>
    </g>
    <g id="PathCollection_2">
     <defs>
      <path d="M 0 9.280777 
C 2.461291 9.280777 4.822105 8.302895 6.5625 6.5625 
C 8.302895 4.822105 9.280777 2.461291 9.280777 0 
C 9.280777 -2.461291 8.302895 -4.822105 6.5625 -6.5625 
C 4.822105 -8.302895 2.461291 -9.280777 0 -9.280777 
C -2.461291 -9.280777 -4.822105 -8.302895 -6.5625 -6.5625 
C -8.302895 -4.822105 -9.280777 -2.461291 -9.280777 0 
C -9.280777 2.461291 -8.302895 4.822105 -6.5625 6.5625 
C -4.822105 8.302895 -2.461291 9.280777 0 9.280777 
z
" id="mee2dcf7d80" style="stroke:#84b819;stroke-opacity:0.35;stroke-width:0.3;"/>
     </defs>
     <g>
      <use style="fill:#84b819;fill-opacity:0.35;stroke:#84b819;stroke-opacity:0.35;stroke-width:0.3;" x="67.53" xlink:href="#mee2dcf7d80" y="55.211562"/>
     </g>
    </g>
    <g id="text_52">
     <!-- Puissance et nombre de nouvelles machines en exploitation chez Valemo -->
     <defs>
      <path d="M 48.6875 27.296875 
Q 48.6875 37.203125 44.609375 42.84375 
Q 40.53125 48.484375 33.40625 48.484375 
Q 26.265625 48.484375 22.1875 42.84375 
Q 18.109375 37.203125 18.109375 27.296875 
Q 18.109375 17.390625 22.1875 11.75 
Q 26.265625 6.109375 33.40625 6.109375 
Q 40.53125 6.109375 44.609375 11.75 
Q 48.6875 17.390625 48.6875 27.296875 
z
M 18.109375 46.390625 
Q 20.953125 51.265625 25.265625 53.625 
Q 29.59375 56 35.59375 56 
Q 45.5625 56 51.78125 48.09375 
Q 58.015625 40.1875 58.015625 27.296875 
Q 58.015625 14.40625 51.78125 6.484375 
Q 45.5625 -1.421875 35.59375 -1.421875 
Q 29.59375 -1.421875 25.265625 0.953125 
Q 20.953125 3.328125 18.109375 8.203125 
L 18.109375 0 
L 9.078125 0 
L 9.078125 75.984375 
L 18.109375 75.984375 
z
" id="DejaVuSans-98"/>
      <path d="M 2.984375 54.6875 
L 12.5 54.6875 
L 29.59375 8.796875 
L 46.6875 54.6875 
L 56.203125 54.6875 
L 35.6875 0 
L 23.484375 0 
z
" id="DejaVuSans-118"/>
     </defs>
     <g style="fill:#262626;" transform="translate(85.53 57.836562)scale(0.1 -0.1)">
      <use xlink:href="#DejaVuSans-80"/>
      <use x="58.552734" xlink:href="#DejaVuSans-117"/>
      <use x="121.931641" xlink:href="#DejaVuSans-105"/>
      <use x="149.714844" xlink:href="#DejaVuSans-115"/>
      <use x="201.814453" xlink:href="#DejaVuSans-115"/>
      <use x="253.914062" xlink:href="#DejaVuSans-97"/>
      <use x="315.193359" xlink:href="#DejaVuSans-110"/>
      <use x="378.572266" xlink:href="#DejaVuSans-99"/>
      <use x="433.552734" xlink:href="#DejaVuSans-101"/>
      <use x="495.076172" xlink:href="#DejaVuSans-32"/>
      <use x="526.863281" xlink:href="#DejaVuSans-101"/>
      <use x="588.386719" xlink:href="#DejaVuSans-116"/>
      <use x="627.595703" xlink:href="#DejaVuSans-32"/>
      <use x="659.382812" xlink:href="#DejaVuSans-110"/>
      <use x="722.761719" xlink:href="#DejaVuSans-111"/>
      <use x="783.943359" xlink:href="#DejaVuSans-109"/>
      <use x="881.355469" xlink:href="#DejaVuSans-98"/>
      <use x="944.832031" xlink:href="#DejaVuSans-114"/>
      <use x="983.695312" xlink:href="#DejaVuSans-101"/>
      <use x="1045.21875" xlink:href="#DejaVuSans-32"/>
      <use x="1077.005859" xlink:href="#DejaVuSans-100"/>
      <use x="1140.482422" xlink:href="#DejaVuSans-101"/>
      <use x="1202.005859" xlink:href="#DejaVuSans-32"/>
      <use x="1233.792969" xlink:href="#DejaVuSans-110"/>
      <use x="1297.171875" xlink:href="#DejaVuSans-111"/>
      <use x="1358.353516" xlink:href="#DejaVuSans-117"/>
      <use x="1421.732422" xlink:href="#DejaVuSans-118"/>
      <use x="1480.912109" xlink:href="#DejaVuSans-101"/>
      <use x="1542.435547" xlink:href="#DejaVuSans-108"/>
      <use x="1570.21875" xlink:href="#DejaVuSans-108"/>
      <use x="1598.001953" xlink:href="#DejaVuSans-101"/>
      <use x="1659.525391" xlink:href="#DejaVuSans-115"/>
      <use x="1711.625" xlink:href="#DejaVuSans-32"/>
      <use x="1743.412109" xlink:href="#DejaVuSans-109"/>
      <use x="1840.824219" xlink:href="#DejaVuSans-97"/>
      <use x="1902.103516" xlink:href="#DejaVuSans-99"/>
      <use x="1957.083984" xlink:href="#DejaVuSans-104"/>
      <use x="2020.462891" xlink:href="#DejaVuSans-105"/>
      <use x="2048.246094" xlink:href="#DejaVuSans-110"/>
      <use x="2111.625" xlink:href="#DejaVuSans-101"/>
      <use x="2173.148438" xlink:href="#DejaVuSans-115"/>
      <use x="2225.248047" xlink:href="#DejaVuSans-32"/>
      <use x="2257.035156" xlink:href="#DejaVuSans-101"/>
      <use x="2318.558594" xlink:href="#DejaVuSans-110"/>
      <use x="2381.9375" xlink:href="#DejaVuSans-32"/>
      <use x="2413.724609" xlink:href="#DejaVuSans-101"/>
      <use x="2473.498047" xlink:href="#DejaVuSans-120"/>
      <use x="2532.677734" xlink:href="#DejaVuSans-112"/>
      <use x="2596.154297" xlink:href="#DejaVuSans-108"/>
      <use x="2623.9375" xlink:href="#DejaVuSans-111"/>
      <use x="2685.119141" xlink:href="#DejaVuSans-105"/>
      <use x="2712.902344" xlink:href="#DejaVuSans-116"/>
      <use x="2752.111328" xlink:href="#DejaVuSans-97"/>
      <use x="2813.390625" xlink:href="#DejaVuSans-116"/>
      <use x="2852.599609" xlink:href="#DejaVuSans-105"/>
      <use x="2880.382812" xlink:href="#DejaVuSans-111"/>
      <use x="2941.564453" xlink:href="#DejaVuSans-110"/>
      <use x="3004.943359" xlink:href="#DejaVuSans-32"/>
      <use x="3036.730469" xlink:href="#DejaVuSans-99"/>
      <use x="3091.710938" xlink:href="#DejaVuSans-104"/>
      <use x="3155.089844" xlink:href="#DejaVuSans-101"/>
      <use x="3216.613281" xlink:href="#DejaVuSans-122"/>
      <use x="3269.103516" xlink:href="#DejaVuSans-32"/>
      <use x="3300.890625" xlink:href="#DejaVuSans-86"/>
      <use x="3361.548828" xlink:href="#DejaVuSans-97"/>
      <use x="3422.828125" xlink:href="#DejaVuSans-108"/>
      <use x="3450.611328" xlink:href="#DejaVuSans-101"/>
      <use x="3512.134766" xlink:href="#DejaVuSans-109"/>
      <use x="3609.546875" xlink:href="#DejaVuSans-111"/>
     </g>
    </g>
   </g>
  </g>
 </g>
 <defs>
  <clipPath id="pa2a54184b4">
   <rect height="219.16" width="660.67" x="48.53" y="26.16"/>
  </clipPath>
 </defs>
</svg>
